# xmcd
#
# Track frame offsets:
#	182
#	12885
#	30547
#	48390
#	65210
#	74197
#	87247
#	105702
#	114865
#	126322
#	140045
#	156062
#	174005
#
# Disc length: 2505 seconds
#
# Revision: 2
# Processed by: cddbd v1.4PL0 Copyright (c) Steve Scherf et al.
# Submitted via: EasyCDDAExtractor 5.0.7
#
DISCID=b309c70d
DTITLE=Fafa De Belem - Meu fado
DYEAR=1992
DGENRE=Fado
TTITLE0=Cancao Grata
TTITLE1=Canoa Do Tejo
TTITLE2=Nem As Paredes Confesso
TTITLE3=Sombras Da Madrugada
TTITLE4=So A Noitinha
TTITLE5=Procuro E Nao Te Encontro
TTITLE6=Confesso
TTITLE7=Fado Das Queixas
TTITLE8=Olhos Castanhos
TTITLE9=So Nos Dois
TTITLE10=Sempre Que Lisboa Canta
TTITLE11=Memorias
TTITLE12=Tudo Isto E Fado
EXTD=YEAR: 1992 ID3G: 40
EXTT0=
EXTT1=
EXTT2=
EXTT3=
EXTT4=
EXTT5=
EXTT6=
EXTT7=
EXTT8=
EXTT9=
EXTT10=
EXTT11=
EXTT12=
PLAYORDER=
